{"title":"Grace and Frankie S02E07 720p WEBRip x264","uid":14546018,"size":559820898,"categoryP":"video","categoryS":"hd___tv_shows","magnet":"?xt=urn:btih:890d76fec992482caecbc6bc27899c120b7c7604&amp;dn=Grace+and+Frankie+S02E07+720p+WEBRip+x264&amp;tr=udp%3A%2F%2Ftracker.leechers-paradise.org%3A6969&amp;tr=udp%3A%2F%2Fzer0day.ch%3A1337&amp;tr=udp%3A%2F%2Fopen.demonii.com%3A1337&amp;tr=udp%3A%2F%2Ftracker.coppersurfer.tk%3A6969&amp;tr=udp%3A%2F%2Fexodus.desync.com%3A6969","seeders":16,"leechers":0,"uploader":"TheRival","files":1,"time":1462582443,"description":"Screens: \nhttp://postimg.org/image/sgfmfjb41/full/\r\n \nhttp://www.imdb.com/title/tt3609352/\r\n\r\n\r\nVideo\r\nID                                       : 1\r\nFormat                                   : AVC\r\nFormat/Info                              : Advanced Video Codec\r\nFormat profile                           :   \r\nFormat settings, CABAC                   : Yes\r\nFormat settings, ReFrames                : 1 frame\r\nFormat settings, GOP                     : M=3, N=24\r\nMuxing mode                              : Container   \r\nCodec ID                                 : avc1\r\nCodec ID/Info                            : Advanced Video Coding\r\nDuration                                 : 28mn 48s\r\nBit rate mode                            : Variable\r\nBit rate                                 : 2 456 Kbps\r\nMaximum bit rate                         : 3 750 Kbps\r\nWidth                                    : 1 280 pixels\r\nHeight                                   : 720 pixels\r\nDisplay aspect ratio                     : 16:9\r\nFrame rate mode                          : Constant\r\nFrame rate                               : 25.000 fps\r\nColor space                              : YUV\r\nChroma subsampling                       : 4:2:0\r\nBit depth                                : 8 bits\r\nScan type                                : Progressive\r\nBits/(Pixel*Frame)                       : 0.107\r\nStream size                              : 506 MiB (95%)\r\nLanguage                                 : English\r\n\r\nAudio\r\nID                                       : 2\r\nFormat                                   : AAC\r\nFormat/Info                              : Advanced Audio Codec\r\nFormat profile                           : LC\r\nCodec ID                                 : 40\r\nDuration                                 : 28mn 49s\r\nBit rate mode                            : Constant\r\nBit rate                                 : 128 Kbps\r\nChannel(s)                               : 2 channels\r\nChannel positions                        : Front: L R\r\nSampling rate                            : 48.0 KHz\r\nFrame rate                               : 46.875 fps (1024 spf)\r\nCompression mode                         : Lossy\r\nStream size                              : 26.4 MiB (5%)\r\nTitle                                    : Stereo\r\nLanguage                                 : English\r\nDefault                                  : Yes\r\nAlternate group                          : 1","torrent":{"xt":"urn:btih:890d76fec992482caecbc6bc27899c120b7c7604","amp;dn":"Grace+and+Frankie+S02E07+720p+WEBRip+x264","amp;tr":["udp%3A%2F%2Ftracker.leechers-paradise.org%3A6969","udp%3A%2F%2Fzer0day.ch%3A1337","udp%3A%2F%2Fopen.demonii.com%3A1337","udp%3A%2F%2Ftracker.coppersurfer.tk%3A6969","udp%3A%2F%2Fexodus.desync.com%3A6969"],"infoHash":"890d76fec992482caecbc6bc27899c120b7c7604","infoHashBuffer":{"type":"Buffer","data":[137,13,118,254,201,146,72,44,174,203,198,188,39,137,156,18,11,124,118,4]},"announce":[],"urlList":[]}}